<svg width="13" height="4" viewBox="0 0 13 4" fill="none" xmlns="http://www.w3.org/2000/svg">
<path d="M2.18 3.12C1.78 3.12 1.44667 2.99333 1.18 2.74C0.926667 2.47333 0.8 2.16 0.8 1.8C0.8 1.42667 0.926667 1.11333 1.18 0.86C1.44667 0.593333 1.78 0.46 2.18 0.46C2.58 0.46 2.90667 0.593333 3.16 0.86C3.41333 1.11333 3.54 1.42667 3.54 1.8C3.54 2.16 3.41333 2.47333 3.16 2.74C2.90667 2.99333 2.58 3.12 2.18 3.12ZM6.51594 3.12C6.11594 3.12 5.7826 2.99333 5.51594 2.74C5.2626 2.47333 5.13594 2.16 5.13594 1.8C5.13594 1.42667 5.2626 1.11333 5.51594 0.86C5.7826 0.593333 6.11594 0.46 6.51594 0.46C6.91594 0.46 7.2426 0.593333 7.49594 0.86C7.74927 1.11333 7.87594 1.42667 7.87594 1.8C7.87594 2.16 7.74927 2.47333 7.49594 2.74C7.2426 2.99333 6.91594 3.12 6.51594 3.12ZM10.8519 3.12C10.4519 3.12 10.1185 2.99333 9.85188 2.74C9.59854 2.47333 9.47188 2.16 9.47188 1.8C9.47188 1.42667 9.59854 1.11333 9.85188 0.86C10.1185 0.593333 10.4519 0.46 10.8519 0.46C11.2519 0.46 11.5785 0.593333 11.8319 0.86C12.0852 1.11333 12.2119 1.42667 12.2119 1.8C12.2119 2.16 12.0852 2.47333 11.8319 2.74C11.5785 2.99333 11.2519 3.12 10.8519 3.12Z" fill="white"/>
</svg>
