<svg width="20" height="20" viewBox="0 0 20 20" fill="none" xmlns="http://www.w3.org/2000/svg">
<path d="M9.40832 11.1667C9.48579 11.2448 9.57795 11.3068 9.6795 11.3492C9.78105 11.3915 9.88997 11.4132 9.99998 11.4132C10.11 11.4132 10.2189 11.3915 10.3205 11.3492C10.422 11.3068 10.5142 11.2448 10.5917 11.1667L14.4083 7.34174C14.4858 7.26364 14.578 7.20164 14.6795 7.15933C14.7811 7.11702 14.89 7.09524 15 7.09524C15.11 7.09524 15.2189 7.11702 15.3205 7.15933C15.422 7.20164 15.5142 7.26364 15.5917 7.34174C15.7469 7.49788 15.834 7.70909 15.834 7.92924C15.834 8.1494 15.7469 8.36061 15.5917 8.51674L11.7667 12.3417C11.2979 12.8099 10.6625 13.0729 9.99998 13.0729C9.33748 13.0729 8.70207 12.8099 8.23331 12.3417L4.40831 8.51674C4.25436 8.36153 4.16756 8.15203 4.16664 7.93341C4.16601 7.82374 4.18703 7.71502 4.2285 7.61349C4.26997 7.51195 4.33108 7.41961 4.40831 7.34174C4.48578 7.26364 4.57795 7.20164 4.6795 7.15933C4.78105 7.11702 4.88997 7.09524 4.99998 7.09524C5.10999 7.09524 5.21891 7.11702 5.32046 7.15933C5.42201 7.20164 5.51418 7.26364 5.59164 7.34174L9.40832 11.1667Z" fill="#4F2EE8"/>
</svg>
