<svg width="39" height="11" viewBox="0 0 39 11" fill="none" xmlns="http://www.w3.org/2000/svg">
<path d="M0.952 10V0.199999H2.744V4.274H7.14V0.199999H8.932V10H7.14V5.73H2.744V10H0.952ZM14.8688 10.168C13.8888 10.168 13.0301 9.95333 12.2928 9.524C11.5648 9.09467 10.9908 8.502 10.5708 7.746C10.1601 6.98067 9.95477 6.09867 9.95477 5.1C9.95477 4.10133 10.1601 3.224 10.5708 2.468C10.9908 1.70267 11.5648 1.10533 12.2928 0.676C13.0301 0.246667 13.8888 0.0319998 14.8688 0.0319998C15.8394 0.0319998 16.6934 0.246667 17.4308 0.676C18.1681 1.10533 18.7421 1.70267 19.1528 2.468C19.5634 3.224 19.7688 4.10133 19.7688 5.1C19.7688 6.09867 19.5634 6.98067 19.1528 7.746C18.7421 8.502 18.1681 9.09467 17.4308 9.524C16.6934 9.95333 15.8394 10.168 14.8688 10.168ZM14.8688 8.558C15.8021 8.558 16.5441 8.25 17.0948 7.634C17.6548 7.018 17.9348 6.17333 17.9348 5.1C17.9348 4.02667 17.6548 3.182 17.0948 2.566C16.5441 1.95 15.8021 1.642 14.8688 1.642C13.9354 1.642 13.1888 1.95 12.6288 2.566C12.0688 3.182 11.7888 4.02667 11.7888 5.1C11.7888 6.17333 12.0688 7.018 12.6288 7.634C13.1888 8.25 13.9354 8.558 14.8688 8.558ZM20.791 10V0.199999H22.919L26.041 6.416L29.121 0.199999H31.249V10H29.457V3.238L26.727 8.6H25.313L22.583 3.238V10H20.791ZM32.5904 10V0.199999H38.9884V1.642H34.3824V4.33H38.5684V5.73H34.3824V8.558H38.9884V10H32.5904Z" fill="#111111"/>
</svg>
