<svg width="8" height="14" viewBox="0 0 8 14" fill="none" xmlns="http://www.w3.org/2000/svg">
<path d="M2.71589 7.65087C2.62997 7.56565 2.56177 7.46427 2.51524 7.35256C2.4687 7.24086 2.44474 7.12104 2.44474 7.00003C2.44474 6.87902 2.4687 6.75921 2.51524 6.6475C2.56177 6.5358 2.62997 6.43441 2.71589 6.3492L6.92339 2.15086C7.00931 2.06564 7.0775 1.96426 7.12404 1.85255C7.17058 1.74085 7.19454 1.62103 7.19454 1.50002C7.19454 1.37901 7.17058 1.2592 7.12404 1.14749C7.0775 1.03579 7.00931 0.934403 6.92339 0.849187C6.75164 0.678456 6.51931 0.582626 6.27714 0.582626C6.03497 0.582626 5.80264 0.678456 5.63089 0.849187L1.42339 5.05669C0.908402 5.57232 0.619141 6.27128 0.619141 7.00003C0.619141 7.72879 0.908402 8.42774 1.42339 8.94337L5.63089 13.1509C5.80163 13.3202 6.03208 13.4157 6.27255 13.4167C6.39319 13.4174 6.51278 13.3943 6.62447 13.3487C6.73615 13.3031 6.83773 13.2358 6.92339 13.1509C7.00931 13.0657 7.0775 12.9643 7.12404 12.8526C7.17058 12.7409 7.19454 12.6211 7.19454 12.5C7.19454 12.379 7.17058 12.2592 7.12404 12.1475C7.0775 12.0358 7.00931 11.9344 6.92339 11.8492L2.71589 7.65087Z" fill="white"/>
</svg>
