<svg width="8" height="14" viewBox="0 0 8 14" fill="none" xmlns="http://www.w3.org/2000/svg">
<path d="M5.28411 7.65085C5.37003 7.56564 5.43823 7.46425 5.48476 7.35255C5.5313 7.24084 5.55526 7.12103 5.55526 7.00002C5.55526 6.87901 5.5313 6.75919 5.48476 6.64749C5.43823 6.53579 5.37003 6.4344 5.28411 6.34919L1.07661 2.15085C0.990695 2.06563 0.922499 1.96425 0.875961 1.85254C0.829423 1.74084 0.805464 1.62102 0.805464 1.50001C0.805464 1.379 0.829423 1.25919 0.875961 1.14748C0.922499 1.03578 0.990695 0.934395 1.07661 0.849179C1.24836 0.678449 1.48069 0.582619 1.72286 0.582619C1.96503 0.582619 2.19736 0.678449 2.36911 0.849179L6.57661 5.05668C7.0916 5.57231 7.38086 6.27127 7.38086 7.00002C7.38086 7.72877 7.0916 8.42773 6.57661 8.94336L2.36911 13.1509C2.19837 13.3202 1.96792 13.4157 1.72745 13.4167C1.60681 13.4174 1.48722 13.3943 1.37553 13.3487C1.26385 13.303 1.16227 13.2358 1.07661 13.1509C0.990695 13.0656 0.922499 12.9643 0.875961 12.8526C0.829423 12.7409 0.805464 12.621 0.805464 12.5C0.805464 12.379 0.829423 12.2592 0.875961 12.1475C0.922499 12.0358 0.990695 11.9344 1.07661 11.8492L5.28411 7.65085Z" fill="black"/>
</svg>
