<svg width="67" height="11" viewBox="0 0 67 11" fill="none" xmlns="http://www.w3.org/2000/svg">
<path d="M4.298 10.168C3.57933 10.168 2.94467 10.0467 2.394 9.804C1.84333 9.552 1.40933 9.19733 1.092 8.74C0.774667 8.27333 0.611333 7.70867 0.602 7.046H2.492C2.51067 7.50333 2.674 7.89067 2.982 8.208C3.29933 8.516 3.73333 8.67 4.284 8.67C4.76 8.67 5.138 8.558 5.418 8.334C5.698 8.10067 5.838 7.79267 5.838 7.41C5.838 7.00867 5.712 6.696 5.46 6.472C5.21733 6.248 4.89067 6.066 4.48 5.926C4.06933 5.786 3.63067 5.63667 3.164 5.478C2.408 5.21667 1.82933 4.88067 1.428 4.47C1.036 4.05933 0.84 3.51333 0.84 2.832C0.830667 2.25333 0.966 1.75867 1.246 1.348C1.53533 0.927999 1.92733 0.605999 2.422 0.381999C2.91667 0.148666 3.486 0.0319998 4.13 0.0319998C4.78333 0.0319998 5.35733 0.148666 5.852 0.381999C6.356 0.615333 6.748 0.941999 7.028 1.362C7.31733 1.782 7.47133 2.28133 7.49 2.86H5.572C5.56267 2.51467 5.42733 2.21133 5.166 1.95C4.914 1.67933 4.55933 1.544 4.102 1.544C3.71 1.53467 3.37867 1.63267 3.108 1.838C2.84667 2.034 2.716 2.32333 2.716 2.706C2.716 3.03267 2.81867 3.294 3.024 3.49C3.22933 3.67667 3.50933 3.83533 3.864 3.966C4.21867 4.09667 4.62467 4.23667 5.082 4.386C5.56733 4.554 6.01067 4.75 6.412 4.974C6.81333 5.198 7.13533 5.49667 7.378 5.87C7.62067 6.234 7.742 6.70533 7.742 7.284C7.742 7.79733 7.61133 8.27333 7.35 8.712C7.08867 9.15067 6.70133 9.50533 6.188 9.776C5.67467 10.0373 5.04467 10.168 4.298 10.168ZM9.16552 10V0.199999H15.5635V1.642H10.9575V4.33H15.1435V5.73H10.9575V8.558H15.5635V10H9.16552ZM17.1193 10V0.199999H23.5173V1.642H18.9113V4.33H23.0973V5.73H18.9113V8.558H23.5173V10H17.1193ZM28.269 10V0.199999H30.397L33.519 6.416L36.599 0.199999H38.727V10H36.935V3.238L34.205 8.6H32.791L30.061 3.238V10H28.269ZM45.0803 10.168C44.1003 10.168 43.2417 9.95333 42.5043 9.524C41.7763 9.09467 41.2023 8.502 40.7823 7.746C40.3717 6.98067 40.1663 6.09867 40.1663 5.1C40.1663 4.10133 40.3717 3.224 40.7823 2.468C41.2023 1.70267 41.7763 1.10533 42.5043 0.676C43.2417 0.246667 44.1003 0.0319998 45.0803 0.0319998C46.051 0.0319998 46.905 0.246667 47.6423 0.676C48.3797 1.10533 48.9537 1.70267 49.3643 2.468C49.775 3.224 49.9803 4.10133 49.9803 5.1C49.9803 6.09867 49.775 6.98067 49.3643 7.746C48.9537 8.502 48.3797 9.09467 47.6423 9.524C46.905 9.95333 46.051 10.168 45.0803 10.168ZM45.0803 8.558C46.0137 8.558 46.7557 8.25 47.3063 7.634C47.8663 7.018 48.1463 6.17333 48.1463 5.1C48.1463 4.02667 47.8663 3.182 47.3063 2.566C46.7557 1.95 46.0137 1.642 45.0803 1.642C44.147 1.642 43.4003 1.95 42.8403 2.566C42.2803 3.182 42.0003 4.02667 42.0003 5.1C42.0003 6.17333 42.2803 7.018 42.8403 7.634C43.4003 8.25 44.147 8.558 45.0803 8.558ZM51.4225 10V0.199999H55.0205C55.8045 0.199999 56.4485 0.335333 56.9525 0.606C57.4659 0.867333 57.8485 1.22667 58.1005 1.684C58.3525 2.132 58.4785 2.63133 58.4785 3.182C58.4785 3.77933 58.3199 4.32533 58.0025 4.82C57.6945 5.31467 57.2092 5.674 56.5465 5.898L58.5765 10H56.5185L54.6985 6.136H53.2145V10H51.4225ZM53.2145 4.82H54.9085C55.5059 4.82 55.9445 4.67533 56.2245 4.386C56.5045 4.09667 56.6445 3.714 56.6445 3.238C56.6445 2.77133 56.5045 2.398 56.2245 2.118C55.9539 1.838 55.5105 1.698 54.8945 1.698H53.2145V4.82ZM60.0052 10V0.199999H66.4032V1.642H61.7972V4.33H65.9832V5.73H61.7972V8.558H66.4032V10H60.0052Z" fill="#111111"/>
</svg>
