<svg width="96" height="11" viewBox="0 0 96 11" fill="none" xmlns="http://www.w3.org/2000/svg">
<path d="M4.298 10.168C3.57933 10.168 2.94467 10.0467 2.394 9.804C1.84333 9.552 1.40933 9.19733 1.092 8.74C0.774667 8.27333 0.611333 7.70867 0.602 7.046H2.492C2.51067 7.50333 2.674 7.89067 2.982 8.208C3.29933 8.516 3.73333 8.67 4.284 8.67C4.76 8.67 5.138 8.558 5.418 8.334C5.698 8.10067 5.838 7.79267 5.838 7.41C5.838 7.00867 5.712 6.696 5.46 6.472C5.21733 6.248 4.89067 6.066 4.48 5.926C4.06933 5.786 3.63067 5.63667 3.164 5.478C2.408 5.21667 1.82933 4.88067 1.428 4.47C1.036 4.05933 0.84 3.51333 0.84 2.832C0.830667 2.25333 0.966 1.75867 1.246 1.348C1.53533 0.927999 1.92733 0.605999 2.422 0.381999C2.91667 0.148666 3.486 0.0319998 4.13 0.0319998C4.78333 0.0319998 5.35733 0.148666 5.852 0.381999C6.356 0.615333 6.748 0.941999 7.028 1.362C7.31733 1.782 7.47133 2.28133 7.49 2.86H5.572C5.56267 2.51467 5.42733 2.21133 5.166 1.95C4.914 1.67933 4.55933 1.544 4.102 1.544C3.71 1.53467 3.37867 1.63267 3.108 1.838C2.84667 2.034 2.716 2.32333 2.716 2.706C2.716 3.03267 2.81867 3.294 3.024 3.49C3.22933 3.67667 3.50933 3.83533 3.864 3.966C4.21867 4.09667 4.62467 4.23667 5.082 4.386C5.56733 4.554 6.01067 4.75 6.412 4.974C6.81333 5.198 7.13533 5.49667 7.378 5.87C7.62067 6.234 7.742 6.70533 7.742 7.284C7.742 7.79733 7.61133 8.27333 7.35 8.712C7.08867 9.15067 6.70133 9.50533 6.188 9.776C5.67467 10.0373 5.04467 10.168 4.298 10.168ZM8.74552 10V0.199999H10.5375V4.274H14.9335V0.199999H16.7255V10H14.9335V5.73H10.5375V10H8.74552ZM22.6623 10.168C21.6823 10.168 20.8236 9.95333 20.0863 9.524C19.3583 9.09467 18.7843 8.502 18.3643 7.746C17.9536 6.98067 17.7483 6.09867 17.7483 5.1C17.7483 4.10133 17.9536 3.224 18.3643 2.468C18.7843 1.70267 19.3583 1.10533 20.0863 0.676C20.8236 0.246667 21.6823 0.0319998 22.6623 0.0319998C23.6329 0.0319998 24.4869 0.246667 25.2243 0.676C25.9616 1.10533 26.5356 1.70267 26.9463 2.468C27.3569 3.224 27.5623 4.10133 27.5623 5.1C27.5623 6.09867 27.3569 6.98067 26.9463 7.746C26.5356 8.502 25.9616 9.09467 25.2243 9.524C24.4869 9.95333 23.6329 10.168 22.6623 10.168ZM22.6623 8.558C23.5956 8.558 24.3376 8.25 24.8883 7.634C25.4483 7.018 25.7283 6.17333 25.7283 5.1C25.7283 4.02667 25.4483 3.182 24.8883 2.566C24.3376 1.95 23.5956 1.642 22.6623 1.642C21.7289 1.642 20.9823 1.95 20.4223 2.566C19.8623 3.182 19.5823 4.02667 19.5823 5.1C19.5823 6.17333 19.8623 7.018 20.4223 7.634C20.9823 8.25 21.7289 8.558 22.6623 8.558ZM28.5845 10V0.199999H32.2105C32.9945 0.199999 33.6432 0.330666 34.1565 0.591999C34.6698 0.853333 35.0525 1.21267 35.3045 1.67C35.5565 2.12733 35.6825 2.64067 35.6825 3.21C35.6825 3.75133 35.5612 4.25067 35.3185 4.708C35.0758 5.156 34.6978 5.52 34.1845 5.8C33.6712 6.07067 33.0132 6.206 32.2105 6.206H30.3765V10H28.5845ZM30.3765 4.75H32.0985C32.7238 4.75 33.1718 4.61467 33.4425 4.344C33.7225 4.064 33.8625 3.686 33.8625 3.21C33.8625 2.72467 33.7225 2.34667 33.4425 2.076C33.1718 1.796 32.7238 1.656 32.0985 1.656H30.3765V4.75ZM36.5284 10V0.199999H40.1544C40.9384 0.199999 41.5871 0.330666 42.1004 0.591999C42.6137 0.853333 42.9964 1.21267 43.2484 1.67C43.5004 2.12733 43.6264 2.64067 43.6264 3.21C43.6264 3.75133 43.5051 4.25067 43.2624 4.708C43.0197 5.156 42.6417 5.52 42.1284 5.8C41.6151 6.07067 40.9571 6.206 40.1544 6.206H38.3204V10H36.5284ZM38.3204 4.75H40.0424C40.6677 4.75 41.1157 4.61467 41.3864 4.344C41.6664 4.064 41.8064 3.686 41.8064 3.21C41.8064 2.72467 41.6664 2.34667 41.3864 2.076C41.1157 1.796 40.6677 1.656 40.0424 1.656H38.3204V4.75ZM44.4723 10V0.199999H46.2643V10H44.4723ZM47.6037 10V0.199999H49.3957L54.0017 7.102V0.199999H55.7937V10H54.0017L49.3957 3.112V10H47.6037ZM61.4176 10.168C60.4936 10.168 59.6862 9.958 58.9956 9.538C58.3049 9.118 57.7682 8.53467 57.3856 7.788C57.0029 7.032 56.8116 6.15467 56.8116 5.156C56.8116 4.148 57.0076 3.26133 57.3996 2.496C57.8009 1.72133 58.3656 1.11933 59.0936 0.69C59.8309 0.251333 60.7036 0.0319998 61.7116 0.0319998C62.8596 0.0319998 63.8116 0.307333 64.5676 0.857999C65.3236 1.40867 65.8136 2.16933 66.0376 3.14H64.0356C63.8862 2.68267 63.6156 2.328 63.2236 2.076C62.8316 1.81467 62.3276 1.684 61.7116 1.684C60.7316 1.684 59.9756 1.99667 59.4436 2.622C58.9116 3.238 58.6456 4.08733 58.6456 5.17C58.6456 6.25267 58.9069 7.09267 59.4296 7.69C59.9616 8.278 60.6802 8.572 61.5856 8.572C62.4722 8.572 63.1396 8.334 63.5876 7.858C64.0449 7.37267 64.3202 6.738 64.4136 5.954H61.9356V4.61H66.2196V10H64.5676L64.4276 8.712C64.1102 9.17867 63.7136 9.538 63.2376 9.79C62.7616 10.042 62.1549 10.168 61.4176 10.168ZM70.1776 10V0.199999H71.9696V8.6H76.3096V10H70.1776ZM77.3286 10V0.199999H79.1206V10H77.3286ZM83.806 10.168C83.0873 10.168 82.4526 10.0467 81.902 9.804C81.3513 9.552 80.9173 9.19733 80.6 8.74C80.2826 8.27333 80.1193 7.70867 80.11 7.046H82C82.0186 7.50333 82.182 7.89067 82.49 8.208C82.8073 8.516 83.2413 8.67 83.792 8.67C84.268 8.67 84.646 8.558 84.926 8.334C85.206 8.10067 85.346 7.79267 85.346 7.41C85.346 7.00867 85.22 6.696 84.968 6.472C84.7253 6.248 84.3986 6.066 83.988 5.926C83.5773 5.786 83.1386 5.63667 82.672 5.478C81.916 5.21667 81.3373 4.88067 80.936 4.47C80.544 4.05933 80.348 3.51333 80.348 2.832C80.3386 2.25333 80.474 1.75867 80.754 1.348C81.0433 0.927999 81.4353 0.605999 81.93 0.381999C82.4246 0.148666 82.994 0.0319998 83.638 0.0319998C84.2913 0.0319998 84.8653 0.148666 85.36 0.381999C85.864 0.615333 86.256 0.941999 86.536 1.362C86.8253 1.782 86.9793 2.28133 86.998 2.86H85.08C85.0706 2.51467 84.9353 2.21133 84.674 1.95C84.422 1.67933 84.0673 1.544 83.61 1.544C83.218 1.53467 82.8866 1.63267 82.616 1.838C82.3546 2.034 82.224 2.32333 82.224 2.706C82.224 3.03267 82.3266 3.294 82.532 3.49C82.7373 3.67667 83.0173 3.83533 83.372 3.966C83.7266 4.09667 84.1326 4.23667 84.59 4.386C85.0753 4.554 85.5186 4.75 85.92 4.974C86.3213 5.198 86.6433 5.49667 86.886 5.87C87.1286 6.234 87.25 6.70533 87.25 7.284C87.25 7.79733 87.1193 8.27333 86.858 8.712C86.5966 9.15067 86.2093 9.50533 85.696 9.776C85.1826 10.0373 84.5526 10.168 83.806 10.168ZM90.4124 10V1.642H87.5564V0.199999H95.0744V1.642H92.2044V10H90.4124Z" fill="#111111"/>
</svg>
