<svg width="69" height="14" viewBox="0 0 69 14" fill="none" xmlns="http://www.w3.org/2000/svg">
<path d="M5.526 13.216C4.602 13.216 3.786 13.06 3.078 12.748C2.37 12.424 1.812 11.968 1.404 11.38C0.996 10.78 0.786 10.054 0.774 9.202H3.204C3.228 9.79 3.438 10.288 3.834 10.696C4.242 11.092 4.8 11.29 5.508 11.29C6.12 11.29 6.606 11.146 6.966 10.858C7.326 10.558 7.506 10.162 7.506 9.67C7.506 9.154 7.344 8.752 7.02 8.464C6.708 8.176 6.288 7.942 5.76 7.762C5.232 7.582 4.668 7.39 4.068 7.186C3.096 6.85 2.352 6.418 1.836 5.89C1.332 5.362 1.08 4.66 1.08 3.784C1.068 3.04 1.242 2.404 1.602 1.876C1.974 1.336 2.478 0.921999 3.114 0.633999C3.75 0.334 4.482 0.184 5.31 0.184C6.15 0.184 6.888 0.334 7.524 0.633999C8.172 0.933999 8.676 1.354 9.036 1.894C9.408 2.434 9.606 3.076 9.63 3.82H7.164C7.152 3.376 6.978 2.986 6.642 2.65C6.318 2.302 5.862 2.128 5.274 2.128C4.77 2.116 4.344 2.242 3.996 2.506C3.66 2.758 3.492 3.13 3.492 3.622C3.492 4.042 3.624 4.378 3.888 4.63C4.152 4.87 4.512 5.074 4.968 5.242C5.424 5.41 5.946 5.59 6.534 5.782C7.158 5.998 7.728 6.25 8.244 6.538C8.76 6.826 9.174 7.21 9.486 7.69C9.798 8.158 9.954 8.764 9.954 9.508C9.954 10.168 9.786 10.78 9.45 11.344C9.114 11.908 8.616 12.364 7.956 12.712C7.296 13.048 6.486 13.216 5.526 13.216ZM11.7842 13V0.399999H14.0882V13H11.7842ZM21.8583 13.216C20.6703 13.216 19.6323 12.946 18.7443 12.406C17.8563 11.866 17.1663 11.116 16.6743 10.156C16.1823 9.184 15.9363 8.056 15.9363 6.772C15.9363 5.476 16.1883 4.336 16.6923 3.352C17.2083 2.356 17.9343 1.582 18.8703 1.03C19.8183 0.466 20.9403 0.184 22.2363 0.184C23.7123 0.184 24.9363 0.538 25.9083 1.246C26.8803 1.954 27.5103 2.932 27.7983 4.18H25.2243C25.0323 3.592 24.6843 3.136 24.1803 2.812C23.6763 2.476 23.0283 2.308 22.2363 2.308C20.9763 2.308 20.0043 2.71 19.3203 3.514C18.6363 4.306 18.2943 5.398 18.2943 6.79C18.2943 8.182 18.6303 9.262 19.3023 10.03C19.9863 10.786 20.9103 11.164 22.0743 11.164C23.2143 11.164 24.0723 10.858 24.6483 10.246C25.2363 9.622 25.5903 8.806 25.7103 7.798H22.5243V6.07H28.0323V13H25.9083L25.7283 11.344C25.3203 11.944 24.8103 12.406 24.1983 12.73C23.5863 13.054 22.8063 13.216 21.8583 13.216ZM30.0922 13V0.399999H32.3962L38.3182 9.274V0.399999H40.6222V13H38.3182L32.3962 4.144V13H30.0922ZM51.8539 13.216C50.9299 13.216 50.0959 13.036 49.3519 12.676C48.6079 12.304 48.0139 11.746 47.5699 11.002C47.1379 10.258 46.9219 9.316 46.9219 8.176V0.399999H49.2259V8.194C49.2259 9.178 49.4599 9.91 49.9279 10.39C50.4079 10.87 51.0679 11.11 51.9079 11.11C52.7359 11.11 53.3899 10.87 53.8699 10.39C54.3499 9.91 54.5899 9.178 54.5899 8.194V0.399999H56.8939V8.176C56.8939 9.316 56.6659 10.258 56.2099 11.002C55.7539 11.746 55.1419 12.304 54.3739 12.676C53.6179 13.036 52.7779 13.216 51.8539 13.216ZM59.0659 13V0.399999H63.7279C64.7359 0.399999 65.5699 0.567999 66.2299 0.903999C66.8899 1.24 67.3819 1.702 67.7059 2.29C68.0299 2.878 68.1919 3.538 68.1919 4.27C68.1919 4.966 68.0359 5.608 67.7239 6.196C67.4119 6.772 66.9259 7.24 66.2659 7.6C65.6059 7.948 64.7599 8.122 63.7279 8.122H61.3699V13H59.0659ZM61.3699 6.25H63.5839C64.3879 6.25 64.9639 6.076 65.3119 5.728C65.6719 5.368 65.8519 4.882 65.8519 4.27C65.8519 3.646 65.6719 3.16 65.3119 2.812C64.9639 2.452 64.3879 2.272 63.5839 2.272H61.3699V6.25Z" fill="#F3F3F3"/>
</svg>
