<svg width="20" height="20" viewBox="0 0 20 20" fill="none" xmlns="http://www.w3.org/2000/svg">
<path d="M15.833 5.83335H13.333V5.00002C13.333 4.11596 12.9818 3.26812 12.3567 2.643C11.7316 2.01788 10.8837 1.66669 9.99967 1.66669C9.11562 1.66669 8.26777 2.01788 7.64265 2.643C7.01753 3.26812 6.66634 4.11596 6.66634 5.00002V5.83335H4.16634C3.94533 5.83335 3.73337 5.92115 3.57709 6.07743C3.42081 6.23371 3.33301 6.44567 3.33301 6.66669V15.8334C3.33301 16.4964 3.5964 17.1323 4.06524 17.6011C4.53408 18.07 5.16997 18.3334 5.83301 18.3334H14.1663C14.8294 18.3334 15.4653 18.07 15.9341 17.6011C16.4029 17.1323 16.6663 16.4964 16.6663 15.8334V6.66669C16.6663 6.44567 16.5785 6.23371 16.4223 6.07743C16.266 5.92115 16.054 5.83335 15.833 5.83335ZM8.33301 5.00002C8.33301 4.55799 8.5086 4.13407 8.82116 3.82151C9.13372 3.50895 9.55764 3.33335 9.99967 3.33335C10.4417 3.33335 10.8656 3.50895 11.1782 3.82151C11.4907 4.13407 11.6663 4.55799 11.6663 5.00002V5.83335H8.33301V5.00002ZM14.9997 15.8334C14.9997 16.0544 14.9119 16.2663 14.7556 16.4226C14.5993 16.5789 14.3874 16.6667 14.1663 16.6667H5.83301C5.61199 16.6667 5.40003 16.5789 5.24375 16.4226C5.08747 16.2663 4.99967 16.0544 4.99967 15.8334V7.50002H6.66634V8.33335C6.66634 8.55437 6.75414 8.76633 6.91042 8.92261C7.0667 9.07889 7.27866 9.16669 7.49967 9.16669C7.72069 9.16669 7.93265 9.07889 8.08893 8.92261C8.24521 8.76633 8.33301 8.55437 8.33301 8.33335V7.50002H11.6663V8.33335C11.6663 8.55437 11.7541 8.76633 11.9104 8.92261C12.0667 9.07889 12.2787 9.16669 12.4997 9.16669C12.7207 9.16669 12.9326 9.07889 13.0889 8.92261C13.2452 8.76633 13.333 8.55437 13.333 8.33335V7.50002H14.9997V15.8334Z" fill="white"/>
</svg>
